<?xml version="1.0" standalone="no"?><!DOCTYPE svg PUBLIC "-//W3C//DTD SVG 1.1//EN" "http://www.w3.org/Graphics/SVG/1.1/DTD/svg11.dtd"><svg t="1698834852607" class="icon" viewBox="0 0 1024 1024" version="1.1" xmlns="http://www.w3.org/2000/svg" p-id="7718" xmlns:xlink="http://www.w3.org/1999/xlink" width="200" height="200"><path d="M512 288c-123.488 0-224 100.512-224 224 0 123.488 100.512 224 224 224s224-100.512 224-224C736 388.512 635.488 288 512 288zM512 224c17.664 0 32-14.304 32-32L544 128c0-17.664-14.336-32-32-32-17.696 0-32 14.336-32 32l0 64C480 209.696 494.304 224 512 224zM512 800c-17.696 0-32 14.336-32 32l0 64c0 17.696 14.304 32 32 32 17.664 0 32-14.304 32-32l0-64C544 814.336 529.664 800 512 800zM760.832 308.32l45.248-45.248c12.512-12.512 12.512-32.736 0-45.248-12.512-12.512-32.736-12.512-45.248 0l-45.248 45.248c-12.512 12.512-12.512 32.736 0 45.248C728.096 320.832 748.32 320.832 760.832 308.32zM263.072 715.712l-45.248 45.248c-12.512 12.512-12.512 32.768 0 45.248 12.512 12.512 32.736 12.512 45.248 0l45.248-45.248c12.512-12.576 12.512-32.736 0-45.248C295.84 703.2 275.584 703.136 263.072 715.712zM224 512c0-17.664-14.336-32-32-32L128 480c-17.696 0-32 14.336-32 32 0 17.696 14.304 32 32 32l64 0C209.664 544 224 529.696 224 512zM896 480l-64 0c-17.696 0-32 14.336-32 32 0 17.696 14.304 32 32 32l64 0c17.664 0 32-14.304 32-32C928 494.336 913.664 480 896 480zM263.04 308.32c12.512 12.512 32.736 12.512 45.248 0 12.512-12.512 12.512-32.736 0-45.248l-45.248-45.248c-12.512-12.512-32.768-12.512-45.248 0-12.512 12.512-12.512 32.736 0 45.248L263.04 308.32zM760.928 715.616c-12.576-12.512-32.768-12.512-45.248 0-12.512 12.512-12.576 32.736 0 45.248l45.248 45.248c12.512 12.512 32.736 12.512 45.248 0 12.512-12.512 12.512-32.768 0-45.248L760.928 715.616z" fill="#1296db" p-id="7719"></path></svg>