<?xml version="1.0" standalone="no"?><!DOCTYPE svg PUBLIC "-//W3C//DTD SVG 1.1//EN" "http://www.w3.org/Graphics/SVG/1.1/DTD/svg11.dtd"><svg t="1698673341495" class="icon" viewBox="0 0 1024 1024" version="1.1" xmlns="http://www.w3.org/2000/svg" p-id="7692" xmlns:xlink="http://www.w3.org/1999/xlink" width="64" height="64"><path d="M768 213.333333m0 42.666667l0 0q0 42.666667-42.666667 42.666667l-256 0q-42.666667 0-42.666666-42.666667l0 0q0-42.666667 42.666666-42.666667l256 0q42.666667 0 42.666667 42.666667Z" fill="#516280" p-id="7693"></path><path d="M1024 384m0 42.666667l0 0q0 42.666667-42.666667 42.666666l-512 0q-42.666667 0-42.666666-42.666666l0 0q0-42.666667 42.666666-42.666667l512 0q42.666667 0 42.666667 42.666667Z" fill="#007BFC" p-id="7694"></path><path d="M85.333333 256l0 170.666667 170.666667 0 0-170.666667-170.666667 0m0-85.333333l170.666667 0a85.333333 85.333333 0 0 1 85.333333 85.333333l0 170.666667a85.333333 85.333333 0 0 1-85.333333 85.333333l-170.666667 0a85.333333 85.333333 0 0 1-85.333333-85.333333l0-170.666667a85.333333 85.333333 0 0 1 85.333333-85.333333z" fill="#516280" p-id="7695"></path><path d="M768 213.333333m0 42.666667l0 0q0 42.666667-42.666667 42.666667l-256 0q-42.666667 0-42.666666-42.666667l0 0q0-42.666667 42.666666-42.666667l256 0q42.666667 0 42.666667 42.666667Z" fill="#516280" p-id="7696"></path><path d="M1024 597.333333m0 42.666667l0 0q0 42.666667-42.666667 42.666667l-938.666666 0q-42.666667 0-42.666667-42.666667l0 0q0-42.666667 42.666667-42.666667l938.666666 0q42.666667 0 42.666667 42.666667Z" fill="#516280" p-id="7697"></path><path d="M1024 768m0 42.666667l0 0q0 42.666667-42.666667 42.666666l-938.666666 0q-42.666667 0-42.666667-42.666666l0 0q0-42.666667 42.666667-42.666667l938.666666 0q42.666667 0 42.666667 42.666667Z" fill="#516280" p-id="7698"></path></svg>